<svg xmlns="http://www.w3.org/2000/svg" viewBox="0 0 1024 1024">
  <defs>
    <linearGradient id="bg" x1="128" y1="96" x2="896" y2="928" gradientUnits="userSpaceOnUse">
      <stop offset="0" stop-color="#123C7C"/>
      <stop offset="0.55" stop-color="#0F4C5C"/>
      <stop offset="1" stop-color="#0B3A35"/>
    </linearGradient>
    <filter id="softShadow" x="-20%" y="-20%" width="140%" height="140%">
      <feDropShadow dx="0" dy="28" stdDeviation="28" flood-color="#001018" flood-opacity="0.28"/>
    </filter>
  </defs>
  <rect x="74" y="76" width="876" height="876" rx="205" fill="url(#bg)"/>
  <path d="M190 678H326M698 334H842" stroke="#7DE7F7" stroke-width="34" stroke-linecap="round" opacity="0.88"/>
  <circle cx="190" cy="678" r="38" fill="#F2B84B"/>
  <circle cx="842" cy="334" r="38" fill="#39D783"/>
  <g filter="url(#softShadow)">
    <rect x="304" y="150" width="416" height="724" rx="76" fill="#F4FFF9"/>
    <rect x="342" y="244" width="340" height="496" rx="46" fill="#0B252B"/>
    <rect x="446" y="196" width="132" height="18" rx="9" fill="#0B252B" opacity="0.62"/>
    <rect x="474" y="790" width="76" height="20" rx="10" fill="#0B252B" opacity="0.38"/>
  </g>
  <path d="M430 424L492 496L430 568" fill="none" stroke="#39D783" stroke-width="40" stroke-linecap="round" stroke-linejoin="round"/>
  <path d="M538 568H622" stroke="#7DE7F7" stroke-width="36" stroke-linecap="round"/>
  <path d="M472 798H552V840H472V798Z" fill="#F2B84B"/>
</svg>
